<svg width="21" height="22" viewBox="0 0 21 22" fill="none" xmlns="http://www.w3.org/2000/svg">
<path d="M0.75 9.5H20.25C20.4489 9.5 20.6397 9.42098 20.7803 9.28033C20.921 9.13968 21 8.94891 21 8.75V7.25C21 7.05109 20.921 6.86032 20.7803 6.71967C20.6397 6.57902 20.4489 6.5 20.25 6.5H0.75C0.551088 6.5 0.360322 6.57902 0.21967 6.71967C0.0790176 6.86032 0 7.05109 0 7.25L0 8.75C0 8.94891 0.0790176 9.13968 0.21967 9.28033C0.360322 9.42098 0.551088 9.5 0.75 9.5ZM20.25 18.5H0.75C0.551088 18.5 0.360322 18.579 0.21967 18.7197C0.0790176 18.8603 0 19.0511 0 19.25L0 20.75C0 20.9489 0.0790176 21.1397 0.21967 21.2803C0.360322 21.421 0.551088 21.5 0.75 21.5H20.25C20.4489 21.5 20.6397 21.421 20.7803 21.2803C20.921 21.1397 21 20.9489 21 20.75V19.25C21 19.0511 20.921 18.8603 20.7803 18.7197C20.6397 18.579 20.4489 18.5 20.25 18.5ZM20.3986 0.5H8.10141C8.02241 0.499939 7.94418 0.515452 7.87118 0.545654C7.79819 0.575856 7.73187 0.620152 7.67601 0.67601C7.62015 0.731869 7.57586 0.798192 7.54565 0.871185C7.51545 0.944179 7.49994 1.02241 7.5 1.10141V2.89859C7.49994 2.97759 7.51545 3.05582 7.54565 3.12881C7.57586 3.20181 7.62015 3.26813 7.67601 3.32399C7.73187 3.37985 7.79819 3.42414 7.87118 3.45435C7.94418 3.48455 8.02241 3.50006 8.10141 3.5H20.3986C20.4776 3.50006 20.5558 3.48455 20.6288 3.45435C20.7018 3.42414 20.7681 3.37985 20.824 3.32399C20.8798 3.26813 20.9241 3.20181 20.9543 3.12881C20.9845 3.05582 21.0001 2.97759 21 2.89859V1.10141C21.0001 1.02241 20.9845 0.944179 20.9543 0.871185C20.9241 0.798192 20.8798 0.731869 20.824 0.67601C20.7681 0.620152 20.7018 0.575856 20.6288 0.545654C20.5558 0.515452 20.4776 0.499939 20.3986 0.5ZM20.3986 12.5H8.10141C8.02241 12.4999 7.94418 12.5155 7.87118 12.5457C7.79819 12.5759 7.73187 12.6202 7.67601 12.676C7.62015 12.7319 7.57586 12.7982 7.54565 12.8712C7.51545 12.9442 7.49994 13.0224 7.5 13.1014V14.8986C7.49994 14.9776 7.51545 15.0558 7.54565 15.1288C7.57586 15.2018 7.62015 15.2681 7.67601 15.324C7.73187 15.3798 7.79819 15.4241 7.87118 15.4543C7.94418 15.4845 8.02241 15.5001 8.10141 15.5H20.3986C20.4776 15.5001 20.5558 15.4845 20.6288 15.4543C20.7018 15.4241 20.7681 15.3798 20.824 15.324C20.8798 15.2681 20.9241 15.2018 20.9543 15.1288C20.9845 15.0558 21.0001 14.9776 21 14.8986V13.1014C21.0001 13.0224 20.9845 12.9442 20.9543 12.8712C20.9241 12.7982 20.8798 12.7319 20.824 12.676C20.7681 12.6202 20.7018 12.5759 20.6288 12.5457C20.5558 12.5155 20.4776 12.4999 20.3986 12.5Z" fill="#F2F2F2"/>
</svg>
