<svg width="43" height="50" viewBox="0 0 43 50" fill="none" xmlns="http://www.w3.org/2000/svg">
<path d="M36.6184 24.9956C37.7798 23.8166 38.8198 22.6288 39.7038 21.4585C42.8412 17.3275 43.7772 13.8079 42.3472 11.5459C40.9171 9.28384 37.3637 8.66376 32.337 9.79913C31.349 10.0262 30.3263 10.3057 29.2776 10.6463C29.0003 9.56332 28.6883 8.54148 28.3416 7.58079C26.5909 2.68996 24.1642 0 21.5035 0C18.8428 0 16.4161 2.68996 14.6567 7.58952C14.31 8.55022 13.998 9.57205 13.7207 10.655C12.672 10.3144 11.6493 10.0262 10.6613 9.80786C5.63457 8.67249 2.08118 9.29258 0.65116 11.5546C-0.778863 13.8166 0.165819 17.3362 3.29454 21.4672C4.18722 22.6376 5.21857 23.8253 6.37992 25.0044C5.21857 26.1834 4.17855 27.3712 3.29454 28.5415C0.174486 32.6638 -0.770196 36.1834 0.659827 38.4454C1.62184 39.9651 3.54587 40.7424 6.23258 40.7424C7.54127 40.7424 9.02329 40.559 10.6613 40.1921C11.6493 39.9651 12.672 39.6856 13.7207 39.345C13.998 40.4279 14.31 41.4498 14.6567 42.4105C16.4161 47.3013 18.8428 50 21.5035 50C24.1642 50 26.5909 47.31 28.3503 42.4105C28.6969 41.4498 29.0089 40.4279 29.2863 39.345C30.335 39.6856 31.3577 39.9738 32.3457 40.1921C33.9837 40.559 35.4744 40.7424 36.7744 40.7424C39.4611 40.7424 41.3851 39.9651 42.3472 38.4454C43.7772 36.1834 42.8325 32.6638 39.7038 28.5327C38.8111 27.3624 37.7798 26.1747 36.6184 24.9956ZM32.6577 11.214C34.209 10.8646 35.6044 10.69 36.8004 10.69C38.9411 10.69 40.4665 11.2402 41.1511 12.3231C42.2172 14.0087 41.2811 17.0131 38.5771 20.5764C36.6531 23.1092 34.0097 25.7205 30.8723 28.2096C30.9243 27.1528 30.9503 26.0873 30.9503 25.0044C30.9503 20.3668 30.491 15.9214 29.633 12.0699C30.673 11.7293 31.687 11.441 32.6663 11.2227L32.6577 11.214ZM29.373 20.6463C29.4683 22.0699 29.5116 23.5284 29.5116 25.0044C29.5116 26.4803 29.4596 27.9389 29.373 29.3624C28.2376 30.2096 27.0502 31.0306 25.8196 31.8253C24.3895 32.7511 22.9422 33.607 21.5122 34.3755C20.0821 33.5983 18.6348 32.7511 17.2048 31.8253C15.9741 31.0306 14.7867 30.2009 13.6514 29.3624C13.556 27.9389 13.5127 26.4803 13.5127 25.0044C13.5127 23.5284 13.5647 22.0699 13.6514 20.6463C14.7867 19.7991 15.9741 18.9782 17.2048 18.1834C18.6348 17.2576 20.0821 16.4017 21.5122 15.6332C22.9422 16.4105 24.3895 17.2664 25.8196 18.1834C27.0502 18.9782 28.2376 19.8079 29.373 20.6463ZM16.0087 8.08734C17.5254 3.869 19.5275 1.45852 21.5035 1.45852C23.4795 1.45852 25.4816 3.87773 26.9982 8.08734C28.0729 11.083 28.8356 14.7511 29.2169 18.7511C28.3676 18.1397 27.4836 17.5459 26.5822 16.9607C22.7168 14.4629 18.7561 12.4629 15.0814 11.1266C15.3587 10.0524 15.6621 9.0393 16.0087 8.08734ZM4.43855 20.5764C1.74318 17.0131 0.807163 14.0087 1.87318 12.3231C2.55786 11.2402 4.07455 10.69 6.22392 10.69C7.41994 10.69 8.81529 10.8646 10.3666 11.214C13.3134 11.8777 16.5981 13.1179 19.9781 14.821C18.7994 15.4847 17.6121 16.2009 16.4334 16.952C13.0534 19.1354 9.98531 21.5371 7.4286 23.9825C6.31058 22.8472 5.30523 21.7031 4.45589 20.5764H4.43855ZM10.358 38.786C6.02458 39.7642 2.93053 39.3537 1.87318 37.6769C0.807163 35.9913 1.74318 32.9869 4.44722 29.4236C6.37125 26.8908 9.01463 24.2795 12.1433 21.7991C12.0913 22.8559 12.0653 23.9214 12.0653 25.0044C12.0653 29.6419 12.5247 34.0873 13.3827 37.9389C12.3427 38.2795 11.3287 38.5677 10.3493 38.786H10.358ZM27.0069 41.9127C25.4902 46.131 23.4882 48.5415 21.5122 48.5415C19.5361 48.5415 17.5341 46.1223 16.0174 41.9127C14.9427 38.917 14.18 35.2489 13.7987 31.2489C14.6481 31.8603 15.5321 32.4541 16.4334 33.0393C20.2988 35.5371 24.2595 37.5371 27.9343 38.8734C27.6569 39.9476 27.3536 40.9607 27.0069 41.9127ZM41.1511 37.6681C40.0851 39.3537 36.9911 39.7555 32.6663 38.7773C29.7196 38.1135 26.4349 36.8734 23.0549 35.1703C24.2335 34.5065 25.4209 33.7991 26.5996 33.0393C29.9796 30.8559 33.0477 28.4541 35.6044 26.0087C36.7224 27.1441 37.7278 28.2882 38.5771 29.4148C41.2725 32.9782 42.2172 35.9825 41.1511 37.6681Z" fill="#F2F2F2"/>
</svg>
